<?xml version="1.0" encoding="utf-8"?>
<!-- Generator: Adobe Illustrator 16.0.0, SVG Export Plug-In . SVG Version: 6.00 Build 0)  -->
<!DOCTYPE svg PUBLIC "-//W3C//DTD SVG 1.1//EN" "http://www.w3.org/Graphics/SVG/1.1/DTD/svg11.dtd">
<svg version="1.1" id="Layer_2" xmlns="http://www.w3.org/2000/svg" xmlns:xlink="http://www.w3.org/1999/xlink" x="0px" y="0px"
	 width="79.426px" height="72.938px" viewBox="4 11.75 79.426 72.938" enable-background="new 4 11.75 79.426 72.938"
	 xml:space="preserve">
<g id="GroupDocs_1_">
	<g id="Symbol_4_">
		<g>
			<path fill="#2689C9" d="M44.195,44.279c8.124,0,14.709-6.802,14.709-15.192c0-8.391-6.585-15.192-14.709-15.192
				s-14.71,6.801-14.71,15.192C29.485,37.477,36.071,44.279,44.195,44.279z M58.516,40.119c1.654,0.811,3.502,1.267,5.454,1.267
				c7.058,0,12.779-5.938,12.779-13.263c0-7.324-5.721-13.263-12.779-13.263c-2.535,0-4.895,0.769-6.881,2.089
				c3.203,3.149,5.193,7.532,5.193,12.38C62.281,33.406,60.87,37.154,58.516,40.119z M24.008,41.385
				c1.961,0,3.818-0.456,5.482-1.267c-2.367-2.964-3.785-6.712-3.785-10.791c0-4.848,2-9.231,5.221-12.38
				c-1.997-1.32-4.37-2.089-6.917-2.089c-7.097,0-12.85,5.939-12.85,13.263C11.159,35.447,16.912,41.385,24.008,41.385z
				 M19.369,46.211c-4.808,0-7.276-3.862-7.276-3.862c-3.975,0-5.757,3.243-5.757,7.24v15.45c0,3.451,6.082,6.398,13.433,8.18
				V52.486c0-3.708,2.771-6.759,6.341-7.183C24.134,45.506,20.665,46.211,19.369,46.211z M56.976,47.655
				c0,0-3.929,3.859-8.761,3.859c-1.522,0-2.653-2.413-4.26-2.413c-2.549,0-3.158,2.413-5.306,2.413
				c-3.373,0-8.198-3.859-8.198-3.859c-3.996,0-7.235,3.24-7.235,7.234v21.219c0,8.436,40.995,8.725,40.995,0V54.889
				C64.21,50.895,60.97,47.655,56.976,47.655z M54.806,72.252c-4.617,0.9-17.463,0.938-22.186,0
				c-1.668-0.332-2.652-0.73-2.652-1.932c0-1.197,0.806-1.92,2.652-1.445c3.585,0.918,15.38,0.869,22.186,0
				c2.823-0.359,3.011,0.254,3.135,1.445C58.078,71.66,56.713,71.877,54.806,72.252z M54.806,65.98
				c-4.617,0.904-17.463,0.939-22.186,0c-1.668-0.33-2.652-0.729-2.652-1.93c0-1.197,0.806-1.918,2.652-1.445
				c3.585,0.918,15.38,0.867,22.186,0c2.823-0.359,3.011,0.254,3.135,1.445C58.078,65.391,56.713,65.607,54.806,65.98z
				 M75.302,42.349c0,0-2.482,3.859-7.314,3.859c-1.304,0-4.792-0.706-6.777-0.91c3.589,0.426,6.375,3.475,6.375,7.179v20.713
				c7.39-1.775,13.504-4.723,13.504-8.172V49.583C81.089,45.587,79.297,42.349,75.302,42.349z"/>
		</g>
	</g>
</g>
</svg>
